<?xml version="1.0" standalone="no"?>
<!DOCTYPE svg PUBLIC "-//W3C//DTD SVG 20010904//EN"
 "http://www.w3.org/TR/2001/REC-SVG-20010904/DTD/svg10.dtd">
<svg version="1.0" xmlns="http://www.w3.org/2000/svg"
 width="598.000000pt" height="598.000000pt" viewBox="0 0 598.000000 598.000000"
 preserveAspectRatio="xMidYMid meet">
<metadata>
Created by potrace 1.11, written by Peter Selinger 2001-2013
</metadata>
<g transform="translate(0.000000,598.000000) scale(0.100000,-0.100000)"
fill="#000000" stroke="none">
<path d="M3375 4705 l-250 -256 -78 21 c-193 51 -214 52 -999 57 l-738 4 0
-1665 0 -1666 704 0 c568 0 727 3 818 15 266 35 516 121 714 246 34 22 64 39
68 39 4 0 167 -104 362 -230 l354 -230 751 2 751 3 -846 545 c-642 413 -844
549 -839 560 36 83 97 289 114 385 32 171 32 488 1 656 -51 280 -179 559 -341
748 -25 29 -57 67 -70 83 l-24 30 454 454 454 454 -555 0 -555 0 -250 -255z
m-865 -862 c0 -10 -443 -453 -452 -453 -10 0 -11 444 -1 453 9 10 453 9 453 0z
m855 -384 c119 -177 173 -397 162 -649 -5 -120 -21 -226 -37 -243 -5 -6 -664
408 -699 440 -6 4 511 523 520 523 4 0 29 -32 54 -71z m-861 -1234 c313 -203
424 -280 413 -286 -8 -5 -52 -19 -98 -31 -76 -19 -115 -22 -426 -25 l-343 -5
0 317 c0 254 3 316 13 312 7 -3 205 -130 441 -282z"/>
</g>
</svg>
